<svg width="512" height="512" viewBox="0 0 512 512" fill="none" xmlns="http://www.w3.org/2000/svg">
  <defs>
    <linearGradient id="bg" x1="56" y1="52" x2="450" y2="454" gradientUnits="userSpaceOnUse">
      <stop stop-color="#1C2A37"/>
      <stop offset="1" stop-color="#081017"/>
    </linearGradient>
    <linearGradient id="accent" x1="172" y1="120" x2="364" y2="362" gradientUnits="userSpaceOnUse">
      <stop stop-color="#FFCF78"/>
      <stop offset="1" stop-color="#F46B45"/>
    </linearGradient>
  </defs>
  <rect x="24" y="24" width="464" height="464" rx="104" fill="url(#bg)"/>
  <rect x="24" y="24" width="464" height="464" rx="104" stroke="rgba(255,255,255,0.08)"/>
  <path d="M176 156L256 214M336 156L256 214M256 214V302M256 302L180 358M256 302L332 358" stroke="url(#accent)" stroke-width="16" stroke-linecap="round"/>
  <circle cx="176" cy="156" r="30" fill="#13202C" stroke="#7AA2C4" stroke-width="12"/>
  <circle cx="336" cy="156" r="30" fill="#13202C" stroke="#7AA2C4" stroke-width="12"/>
  <circle cx="256" cy="214" r="34" fill="#13202C" stroke="#E9F1F7" stroke-width="12"/>
  <circle cx="256" cy="302" r="34" fill="#13202C" stroke="#F46B45" stroke-width="14"/>
  <circle cx="180" cy="358" r="28" fill="#13202C" stroke="#6D8DA8" stroke-width="10"/>
  <circle cx="332" cy="358" r="28" fill="#13202C" stroke="#FFCF78" stroke-width="10"/>
  <path d="M242 298L252 308L274 286" stroke="#FFCF78" stroke-width="10" stroke-linecap="round" stroke-linejoin="round"/>
</svg>
